<svg width="7418" height="684" xmlns="http://www.w3.org/2000/svg"><defs><linearGradient x1="0%" y1="50%" x2="100%" y2="50%" id="a"><stop stop-color="#01495E" offset="0%"/><stop stop-color="#535185" offset="12.483%"/><stop stop-color="#A558AC" offset="25.208%"/><stop stop-color="#D25F87" offset="37.535%"/><stop stop-color="#FF6661" offset="50.156%"/><stop stop-color="#D25F87" offset="61.436%"/><stop stop-color="#A558AC" offset="73.789%"/><stop stop-color="#535185" offset="87.299%"/><stop stop-color="#01495E" offset="100%"/></linearGradient></defs><path shape-rendering="geometricPrecision" vector-effect="non-scaling-stroke" d="M0 6c309.082 0 309.082 672 618.168 672 309.078 0 309.078-672 618.16-672 309.083 0 309.083 672 618.161 672 309.082 0 309.082-672 618.16-672 309.086 0 309.086 672 618.169 672 309.085 0 309.085-672 618.167-672 309.083 0 309.083 672 618.165 672 309.078 0 309.078-672 618.157-672 309.078 0 309.078 672 618.16 672 309.086 0 309.086-672 618.172-672 309.082 0 309.082 672 618.164 672 309.1 0 309.1-672 618.197-672" stroke="url(#a)" fill="none" fill-rule="evenodd"/></svg>